<svg width="38" height="38" viewBox="0 0 38 38" fill="none" xmlns="http://www.w3.org/2000/svg">
<path d="M17.7742 8.58066C17.4365 8.58066 17.1613 8.30547 17.1613 7.96776C17.1613 7.63005 17.4365 7.35486 17.7742 7.35486C18.1119 7.35486 18.3871 7.63005 18.3871 7.96776H19.6129C19.6129 7.16976 19.0987 6.49557 18.3871 6.24183V4.90325H17.1613V6.24183C16.4497 6.49557 15.9355 7.16976 15.9355 7.96776C15.9355 8.9815 16.7605 9.80647 17.7742 9.80647C18.1119 9.80647 18.3871 10.0817 18.3871 10.4194C18.3871 10.7571 18.1119 11.0323 17.7742 11.0323C17.4365 11.0323 17.1613 10.7571 17.1613 10.4194H15.9355C15.9355 11.2174 16.4497 11.8916 17.1613 12.1453V13.4839H18.3871V12.1453C19.0987 11.8916 19.6129 11.2174 19.6129 10.4194C19.6129 9.40563 18.7879 8.58066 17.7742 8.58066Z" fill="white"/>
<path d="M2.4516 2.45161V6.12902H3.67741V3.67741H6.12902V2.45161H2.4516Z" fill="white"/>
<path d="M3.67741 14.7097V12.2581H2.4516V15.9355H6.12902V14.7097H3.67741Z" fill="white"/>
<path d="M29.4194 2.45161V3.67741H31.871V6.12902H33.0968V2.45161H29.4194Z" fill="white"/>
<path d="M35.5484 12.32V0H0V18.3871H19.6129V34.9355C19.6129 36.6252 20.9876 38 22.6774 38H34.9355C36.6253 38 38 36.6252 38 34.9355V15.3226C38 13.843 36.9452 12.605 35.5484 12.32ZM19.6129 17.1613H1.22581V1.22581H34.3226V12.2581H23.7733C24.2605 11.313 24.5161 10.2723 24.5161 9.19355C24.5161 5.47629 21.4915 2.45161 17.7742 2.45161C14.0569 2.45161 11.0323 5.47629 11.0323 9.19355C11.0323 12.9108 14.0569 15.9355 17.7742 15.9355C18.4012 15.9355 19.0153 15.8405 19.6129 15.6689V17.1613ZM19.7974 14.3137C19.1483 14.5718 18.4698 14.7097 17.7742 14.7097C14.733 14.7097 12.2581 12.2348 12.2581 9.19355C12.2581 6.15232 14.733 3.67742 17.7742 3.67742C20.8154 3.67742 23.2903 6.15232 23.2903 9.19355C23.2903 10.3078 22.9545 11.373 22.3238 12.2936C21.147 12.4315 20.1786 13.2289 19.7974 14.3137ZM36.7742 34.9355C36.7742 35.9492 35.9492 36.7742 34.9355 36.7742H22.6774C21.6637 36.7742 20.8387 35.9492 20.8387 34.9355V15.3226C20.8387 14.3088 21.6637 13.4839 22.6774 13.4839H34.9355C35.9492 13.4839 36.7742 14.3088 36.7742 15.3226V34.9355Z" fill="white"/>
<path d="M31.871 26.9677V35.5484H35.5484V26.9677H31.871ZM34.3226 34.3226H33.0968V28.1935H34.3226V34.3226Z" fill="white"/>
<path d="M26.9677 31.8709V35.5484H30.6452V31.8709H26.9677ZM29.4194 34.3226H28.1935V33.0967H29.4194V34.3226Z" fill="white"/>
<path d="M22.0645 31.8709V35.5484H25.7419V31.8709H22.0645ZM24.5161 34.3226H23.2903V33.0967H24.5161V34.3226Z" fill="white"/>
<path d="M26.9677 26.9677V30.6451H30.6452V26.9677H26.9677ZM29.4194 29.4193H28.1935V28.1935H29.4194V29.4193Z" fill="white"/>
<path d="M22.0645 26.9677V30.6451H25.7419V26.9677H22.0645ZM24.5161 29.4193H23.2903V28.1935H24.5161V29.4193Z" fill="white"/>
<path d="M26.9677 22.0645V25.7419H30.6452V22.0645H26.9677ZM29.4194 24.5161H28.1935V23.2903H29.4194V24.5161Z" fill="white"/>
<path d="M31.871 22.0645V25.7419H35.5484V22.0645H31.871ZM34.3226 24.5161H33.0968V23.2903H34.3226V24.5161Z" fill="white"/>
<path d="M22.0645 22.0645V25.7419H25.7419V22.0645H22.0645ZM24.5161 24.5161H23.2903V23.2903H24.5161V24.5161Z" fill="white"/>
<path d="M22.0645 14.7097V20.8387H35.5484V14.7097H22.0645ZM34.3226 19.6129H23.2903V15.9355H34.3226V19.6129Z" fill="white"/>
<path d="M15.3226 20.8387C14.3088 20.8387 13.4839 21.6636 13.4839 22.6774C13.4839 22.7019 13.49 22.7252 13.4912 22.7497L10.5677 23.9191C10.2306 23.5367 9.74272 23.2903 9.19356 23.2903C8.75043 23.2903 8.34836 23.4545 8.03088 23.7162L4.86646 21.8181C4.89036 21.6992 4.90323 21.5772 4.90323 21.4516C4.90323 20.4378 4.07827 19.6129 3.06452 19.6129C2.05078 19.6129 1.22582 20.4378 1.22582 21.4516C1.22582 22.4653 2.05078 23.2903 3.06452 23.2903C3.50765 23.2903 3.90972 23.126 4.2272 22.8643L7.39162 24.7631C7.36772 24.8814 7.35485 25.0033 7.35485 25.129C7.35485 26.1427 8.17982 26.9677 9.19356 26.9677C10.2073 26.9677 11.0323 26.1427 11.0323 25.129C11.0323 25.1045 11.0261 25.0812 11.0249 25.0567L13.9485 23.8872C14.2856 24.2697 14.7734 24.5161 15.3226 24.5161C16.3363 24.5161 17.1613 23.6911 17.1613 22.6774C17.1613 21.6636 16.3363 20.8387 15.3226 20.8387ZM3.06452 22.0645C2.72682 22.0645 2.45162 21.7893 2.45162 21.4516C2.45162 21.1139 2.72682 20.8387 3.06452 20.8387C3.40223 20.8387 3.67743 21.1139 3.67743 21.4516C3.67743 21.7893 3.40223 22.0645 3.06452 22.0645ZM9.19356 25.7419C8.85585 25.7419 8.58065 25.4667 8.58065 25.129C8.58065 24.7913 8.85585 24.5161 9.19356 24.5161C9.53127 24.5161 9.80646 24.7913 9.80646 25.129C9.80646 25.4667 9.53127 25.7419 9.19356 25.7419ZM15.3226 23.2903C14.9849 23.2903 14.7097 23.0151 14.7097 22.6774C14.7097 22.3397 14.9849 22.0645 15.3226 22.0645C15.6603 22.0645 15.9355 22.3397 15.9355 22.6774C15.9355 23.0151 15.6603 23.2903 15.3226 23.2903Z" fill="white"/>
<path d="M17.1613 36.7742V25.7419H13.4839V36.7742H11.0323V28.1936H7.35484V36.7742H4.90323V24.5161H1.22581V36.7742H0V38H18.3871V36.7742H17.1613ZM3.67742 36.7742H2.45161V25.7419H3.67742V36.7742ZM9.80645 36.7742H8.58065V29.4194H9.80645V36.7742ZM15.9355 36.7742H14.7097V26.9677H15.9355V36.7742Z" fill="white"/>
<path d="M22.0645 8.58063H20.8387V9.80643H22.0645V8.58063Z" fill="white"/>
<path d="M14.7097 8.58063H13.4839V9.80643H14.7097V8.58063Z" fill="white"/>
</svg>
