<svg width="16" height="29" viewBox="0 0 16 29" fill="none" xmlns="http://www.w3.org/2000/svg">
<path d="M15.2819 12.6872L4.33099 1.27196C3.34358 0.242682 1.63816 0.242682 0.740517 1.27196C-0.246839 2.30123 -0.246839 3.98539 0.740517 5.01466L9.80646 14.5585L0.74057 24.0088C-0.246787 25.0381 -0.246787 26.7223 0.74057 27.7515C1.18939 28.2193 1.90745 28.5 2.53575 28.5C3.16405 28.5 3.88222 28.2193 4.33099 27.7514L15.2819 16.4298C15.7307 15.962 16 15.2134 16 14.5585C16 13.9035 15.7307 13.155 15.2819 12.6872ZM14.0252 15.1199L3.1641 26.4416C2.89481 26.7222 2.35628 26.7222 2.08698 26.4416C1.81769 26.1609 1.81769 25.5994 2.08698 25.3188L11.7812 15.2135C12.1403 14.8392 12.1403 14.2779 11.7812 13.9036L1.99722 3.7983C1.72793 3.42402 1.72793 2.95617 1.99722 2.67551C2.17675 2.48837 2.35628 2.39485 2.53581 2.39485C2.71533 2.39485 2.89486 2.48837 3.07439 2.67551L14.0253 14.0907C14.2048 14.2779 14.2945 14.465 14.2945 14.6521C14.2048 14.7456 14.115 15.0264 14.0252 15.1199Z" fill="white"/>
</svg>
