<svg width="74" height="75" viewBox="0 0 74 75" fill="none" xmlns="http://www.w3.org/2000/svg">
<path d="M37.0433 15.3576C24.9669 15.3576 15.1421 26.4776 15.1421 40.146C15.1421 53.8145 24.967 64.9346 37.0433 64.9346C49.1196 64.9346 58.9447 53.8145 58.9447 40.146C58.9447 26.4776 49.1198 15.3576 37.0433 15.3576ZM37.0433 61.6628C26.5608 61.6628 18.0325 52.0103 18.0325 40.1459C18.0325 28.2816 26.5606 18.6291 37.0433 18.6291C47.5259 18.6291 56.0541 28.2814 56.0541 40.1459C56.0541 52.0103 47.5259 61.6628 37.0433 61.6628Z" fill="white"/>
<path d="M50.008 32.15C49.6254 31.3571 48.7475 31.0653 48.0468 31.4981C48.0234 31.5127 48.0018 31.5294 47.9792 31.5451C47.331 31.999 47.1012 32.9514 47.4709 33.7178C48.4155 35.6761 48.9148 37.899 48.9148 40.146C48.9148 47.5549 43.5892 53.5825 37.0433 53.5825C30.4971 53.5825 25.1717 47.5547 25.1717 40.146C25.1717 32.7371 30.4973 26.7095 37.0433 26.7095C37.6714 26.7095 38.3018 26.7655 38.9168 26.8759C39.6796 27.013 40.3942 26.4476 40.5542 25.6043C40.5598 25.5751 40.5663 25.5463 40.5705 25.5162C40.6954 24.6238 40.1576 23.7858 39.3692 23.6444C38.6049 23.5073 37.8223 23.4378 37.0431 23.4378C28.9034 23.4378 22.281 30.9331 22.281 40.146C22.281 49.3589 28.9033 56.8542 37.0431 56.8542C45.183 56.8542 51.8054 49.3587 51.8054 40.146C51.8054 37.3526 51.1839 34.5877 50.008 32.15Z" fill="white"/>
<path d="M46.2775 26.4766C46.211 26.4014 46.1373 26.3327 46.0578 26.2738C45.9798 26.2149 45.8959 26.1642 45.8078 26.1233C45.7211 26.0824 45.63 26.0513 45.5375 26.03C45.3511 25.9875 45.1588 25.9875 44.9724 26.03C44.8799 26.0513 44.7903 26.0824 44.7021 26.1233C44.6154 26.1642 44.5316 26.2149 44.4535 26.2738C44.374 26.3327 44.3003 26.4014 44.2324 26.4766C44.1659 26.5519 44.1066 26.6353 44.0532 26.7253C44.0011 26.8136 43.9563 26.9085 43.9202 27.0083C43.8974 27.0701 43.8793 27.1342 43.8635 27.1992C43.8543 27.2373 43.8449 27.2754 43.838 27.3142C43.8193 27.4187 43.8105 27.5267 43.8105 27.633C43.8105 27.741 43.8192 27.8475 43.838 27.9538C43.8567 28.0585 43.8842 28.1599 43.9203 28.2595C43.9565 28.3578 44.0013 28.4527 44.0533 28.5411C44.1068 28.631 44.166 28.7145 44.2325 28.7897C44.3005 28.865 44.3742 28.9337 44.4537 28.9942C44.5317 29.0531 44.6155 29.1038 44.7023 29.1447C44.7904 29.1856 44.88 29.2167 44.9725 29.2379C45.0665 29.2592 45.1619 29.2688 45.2558 29.2688C45.3498 29.2688 45.4452 29.259 45.5377 29.2379C45.6302 29.2168 45.7212 29.1856 45.8079 29.1447C45.8837 29.1095 45.9552 29.066 46.0236 29.0174C46.0348 29.0094 46.0468 29.0025 46.0578 28.9942C46.1373 28.9337 46.211 28.865 46.2775 28.7897C46.344 28.7145 46.4047 28.631 46.4567 28.5411C46.5088 28.4527 46.5536 28.3578 46.5897 28.2595C46.6258 28.1599 46.6533 28.0568 46.6721 27.9538C46.6909 27.8475 46.701 27.741 46.701 27.633C46.701 27.2028 46.5463 26.7807 46.2775 26.4766Z" fill="white"/>
<path d="M73.9631 63.5726L69.2754 20.3626C68.9491 17.3553 68.1148 14.4934 66.7952 11.8567C65.9852 10.238 65.0013 8.73291 63.8708 7.38301L63.7446 7.23235C62.7814 6.08219 61.3407 5.77563 60.0738 6.4514C58.8071 7.127 58.0989 8.58012 58.2696 10.1531L64.2117 64.9279C64.2308 65.1037 64.2569 65.2766 64.2899 65.4464C64.7836 67.9923 66.7926 69.8109 69.0838 69.8105C69.2826 69.8105 69.4839 69.797 69.686 69.7688C71.2822 69.547 72.6071 68.477 73.351 67.0072C73.4293 66.8525 73.5012 66.6934 73.5662 66.5304C73.6312 66.3673 73.6895 66.2004 73.7406 66.0299C73.9709 65.2634 74.0559 64.4283 73.9631 63.5726ZM61.1388 9.75433C61.1317 9.68873 61.1128 9.51386 61.3063 9.41064C61.3594 9.38234 61.4059 9.37138 61.4464 9.37138C61.5535 9.37138 61.6178 9.44826 61.6467 9.48294L61.7729 9.6336C62.7424 10.7911 63.5859 12.0815 64.2802 13.469C65.4115 15.7294 66.1269 18.183 66.4066 20.7613L68.9049 43.7907L64.8917 44.3483L61.1388 9.75433ZM70.969 65.0867C70.7055 65.8418 70.0947 66.4157 69.334 66.5214C68.2271 66.6761 67.2168 65.7815 67.0809 64.5291L65.2439 47.5956L69.2571 47.038L71.0941 63.9714C71.1366 64.3625 71.0885 64.7434 70.969 65.0867Z" fill="white"/>
<path d="M17.8245 7.66721C17.0319 7.55663 16.3111 8.19493 16.2139 9.09154L14.8993 21.2086C14.6944 23.097 13.3461 24.5216 11.6775 24.6368L10.7194 24.5036L12.4481 8.5684C12.5454 7.67179 11.982 6.85551 11.1897 6.74525C10.3972 6.63418 9.67627 7.27297 9.579 8.16958L7.85027 24.1048L6.8913 23.9717C5.29712 23.4027 4.29364 21.6514 4.49844 19.7631L5.81295 7.64627C5.91022 6.74967 5.34684 5.93338 4.55452 5.82313C3.76234 5.71189 3.04113 6.35085 2.94386 7.24745L1.62935 19.3643C1.30054 22.396 2.66766 25.2385 4.9738 26.6018L0.0568511 62.4164C0.056273 62.4204 0.0556948 62.4246 0.0551167 62.4287C-0.144481 63.9597 0.201961 65.4809 1.03056 66.7118C1.85916 67.9428 3.06296 68.7247 4.41895 68.9132L4.44525 68.9168C4.65468 68.9459 4.86367 68.9603 5.07107 68.9603C6.21417 68.9603 7.31304 68.5229 8.2181 67.6964C9.28748 66.72 9.9451 65.3294 10.0698 63.7807L12.9761 27.7141C15.5054 27.023 17.4398 24.6393 17.7686 21.6074L19.0831 9.49036C19.1802 8.59375 18.6168 7.77747 17.8245 7.66721ZM7.19135 63.4838C7.13816 64.1429 6.85835 64.7346 6.40322 65.1503C5.94809 65.5659 5.37835 65.7514 4.79863 65.6698L4.77233 65.6662C4.19478 65.586 3.68242 65.2533 3.32991 64.7294C2.97812 64.2069 2.83055 63.5615 2.91409 62.9118L7.79072 27.393L8.93121 27.5515C8.93179 27.5515 8.93223 27.5517 8.9328 27.5519C8.93324 27.5519 8.93367 27.5519 8.9341 27.5519L10.0737 27.7102L7.19135 63.4838Z" fill="white"/>
</svg>
