<svg width="38" height="38" viewBox="0 0 38 38" fill="none" xmlns="http://www.w3.org/2000/svg">
<path d="M5.39673 0C4.64752 0 4.03826 0.60866 4.03826 1.35714V5.42857H2.67979C0.952521 5.42857 0.00198999 6.41263 0.00132663 8.19985L0.010613 8.3178C0.707426 12.261 2.42342 20.552 2.6652 21.7169C2.42608 22.8998 0.706099 31.4306 0.00928641 35.3758L0 35.4938C0 37.0395 0.960812 38 2.50866 38H35.4555C37.0498 38 38 36.9855 38 35.2857L37.9894 35.1678C37.2932 31.2265 35.5457 22.8922 35.2977 21.713C35.5421 20.5384 37.2601 12.2584 37.9562 8.3178L37.9655 8.21575C37.9864 7.32281 37.7589 6.62601 37.2876 6.14425C36.8236 5.66846 36.149 5.42857 35.2831 5.42857H33.9246V1.35714C33.9246 0.60866 33.3153 0 32.5661 0H5.39673ZM5.39673 1.35714H32.5661V5.42857H5.39673V1.35714ZM2.67979 6.78571H35.2831C35.7699 6.78571 36.1175 6.88843 36.3165 7.09187C36.5155 7.29531 36.613 7.64552 36.6084 8.13358C35.8591 12.3631 33.9581 21.484 33.9392 21.5765L33.91 21.7156L33.9392 21.8534C33.9588 21.9466 35.8897 31.1106 36.6402 35.3427C36.6213 36.4868 36.0329 36.6429 35.4555 36.6429H2.50866C1.73158 36.6429 1.37538 36.3046 1.35847 35.5495C2.10967 31.3117 4.00609 21.9432 4.025 21.8481L4.05286 21.7116L4.02367 21.5765C4.00477 21.484 2.10967 12.3737 1.3598 8.14153C1.37273 7.14123 1.72329 6.78571 2.67979 6.78571ZM27.8115 13.5714L22.3776 14.9286V16.2857H25.7738V29.8571H27.8115V13.5714ZM13.2703 13.7066C11.808 13.7066 10.6237 14.1264 9.71757 14.9657C8.81148 15.8049 8.37668 16.8248 8.41349 18.0246L8.43472 18.0895H10.4976C10.5145 17.2317 10.7679 16.6074 11.2565 16.1346C11.7619 15.6433 12.4328 15.3977 13.269 15.3977C14.1492 15.3977 14.8145 15.634 15.2655 16.1068C15.7173 16.5789 15.9421 17.2698 15.9421 18.1783C15.9421 19.0285 15.7438 19.6912 15.3478 20.1676C14.9518 20.6441 14.2769 20.882 13.3233 20.882H11.4462V21.7143H11.4488V22.5612H13.326C14.315 22.5612 15.0393 22.7928 15.4977 23.2583C15.956 23.7238 16.1849 24.4468 16.1849 25.4279C16.1849 26.3947 15.9262 27.1253 15.4101 27.62C14.8941 28.1147 14.181 28.3622 13.2716 28.3622C12.3765 28.3622 11.671 28.1147 11.1583 27.62C10.6449 27.126 10.3888 26.4606 10.3888 25.6253H8.33654L8.30338 25.6903C8.26723 27.0266 8.72359 28.0868 9.67379 28.8684C10.6233 29.6501 11.8223 30.04 13.2703 30.04C14.7468 30.04 15.9604 29.6255 16.9092 28.7969C17.8581 27.9675 18.334 26.8307 18.334 25.3841C18.334 24.5548 18.1344 23.8067 17.7384 23.1377C17.356 22.4909 16.7129 22.0115 15.8121 21.7143L15.7139 21.6666C16.5073 21.3253 17.1016 20.8296 17.4983 20.1782C17.8949 19.5268 18.0939 18.8754 18.0939 18.2207C18.0939 16.7741 17.6574 15.6611 16.7845 14.8795C15.9109 14.0979 14.7402 13.7066 13.2703 13.7066ZM5.39673 32.5714C5.02196 32.5714 4.7175 32.8746 4.7175 33.25V34.6071C4.7175 34.9825 5.02196 35.2857 5.39673 35.2857C5.77151 35.2857 6.07597 34.9825 6.07597 34.6071V33.25C6.07597 32.8746 5.77151 32.5714 5.39673 32.5714ZM8.79291 32.5714C8.41813 32.5714 8.11367 32.8746 8.11367 33.25V34.6071C8.11367 34.9825 8.41813 35.2857 8.79291 35.2857C9.16768 35.2857 9.47214 34.9825 9.47214 34.6071V33.25C9.47214 32.8746 9.16768 32.5714 8.79291 32.5714ZM12.1891 32.5714C11.8143 32.5714 11.5098 32.8746 11.5098 33.25V34.6071C11.5098 34.9825 11.8143 35.2857 12.1891 35.2857C12.5639 35.2857 12.8683 34.9825 12.8683 34.6071V33.25C12.8683 32.8746 12.5639 32.5714 12.1891 32.5714ZM15.5853 32.5714C15.2105 32.5714 14.906 32.8746 14.906 33.25V34.6071C14.906 34.9825 15.2105 35.2857 15.5853 35.2857C15.96 35.2857 16.2645 34.9825 16.2645 34.6071V33.25C16.2645 32.8746 15.96 32.5714 15.5853 32.5714ZM18.9814 32.5714C18.6067 32.5714 18.3022 32.8746 18.3022 33.25V34.6071C18.3022 34.9825 18.6067 35.2857 18.9814 35.2857C19.3572 35.2857 19.6607 34.9825 19.6607 34.6071V33.25C19.6607 32.8746 19.3572 32.5714 18.9814 32.5714ZM22.3776 32.5714C22.0018 32.5714 21.6984 32.8746 21.6984 33.25V34.6071C21.6984 34.9825 22.0018 35.2857 22.3776 35.2857C22.7534 35.2857 23.0568 34.9825 23.0568 34.6071V33.25C23.0568 32.8746 22.7534 32.5714 22.3776 32.5714ZM25.7738 32.5714C25.398 32.5714 25.0945 32.8746 25.0945 33.25V34.6071C25.0945 34.9825 25.398 35.2857 25.7738 35.2857C26.1495 35.2857 26.453 34.9825 26.453 34.6071V33.25C26.453 32.8746 26.1495 32.5714 25.7738 32.5714ZM29.1699 32.5714C28.7942 32.5714 28.4907 32.8746 28.4907 33.25V34.6071C28.4907 34.9825 28.7942 35.2857 29.1699 35.2857C29.5457 35.2857 29.8492 34.9825 29.8492 34.6071V33.25C29.8492 32.8746 29.5457 32.5714 29.1699 32.5714ZM32.5661 32.5714C32.1904 32.5714 31.8869 32.8746 31.8869 33.25V34.6071C31.8869 34.9825 32.1904 35.2857 32.5661 35.2857C32.9419 35.2857 33.2454 34.9825 33.2454 34.6071V33.25C33.2454 32.8746 32.9419 32.5714 32.5661 32.5714Z" fill="#FF1E56"/>
</svg>
