<svg width="38" height="39" viewBox="0 0 38 39" fill="none" xmlns="http://www.w3.org/2000/svg">
<path d="M36.7357 10.1729C35.9772 9.4289 34.9297 8.98929 33.7376 8.98929H27.7414V8.92166C27.7414 8.07625 27.3802 7.26465 26.7662 6.72359C26.1521 6.14871 25.3213 5.81055 24.4183 5.81055H13.5817C12.6426 5.81055 11.8118 6.14871 11.1977 6.72359C10.5837 7.29847 10.2224 8.07625 10.2224 8.92166V8.98929H4.26236C3.07034 8.98929 2.02281 9.4289 1.26426 10.1729C0.505704 10.883 0 11.8975 0 12.9796V29.8202C0 30.9361 0.469582 31.9168 1.26426 32.627C2.02281 33.3371 3.10646 33.8105 4.26236 33.8105H33.7376C34.9297 33.8105 35.9772 33.3709 36.7357 32.627C37.4943 31.9168 38 30.9023 38 29.8202V12.9796C38 11.8637 37.5304 10.883 36.7357 10.1729ZM36.1217 29.8202H36.0856C36.0856 30.4289 35.8327 30.97 35.3992 31.3758C34.9658 31.7816 34.3878 32.0183 33.7376 32.0183H4.26236C3.61217 32.0183 3.03422 31.7816 2.60076 31.3758C2.1673 30.97 1.91445 30.4289 1.91445 29.8202V12.9796C1.91445 12.3709 2.1673 11.8299 2.60076 11.4241C3.03422 11.0183 3.61217 10.7816 4.26236 10.7816H11.2338C11.7757 10.7816 12.2091 10.3758 12.2091 9.86852V8.88784C12.2091 8.51586 12.3536 8.1777 12.6065 7.94098C12.8593 7.70427 13.2205 7.569 13.6179 7.569H24.4183C24.8156 7.569 25.1768 7.70427 25.4297 7.94098C25.6825 8.1777 25.827 8.51586 25.827 8.88784V9.86852C25.827 10.3758 26.2605 10.7816 26.8023 10.7816H33.7738C34.424 10.7816 35.0019 11.0183 35.4354 11.4241C35.8688 11.8299 36.1217 12.3709 36.1217 12.9796V29.8202Z" fill="white"/>
<path d="M19.0002 13.0811C16.5439 13.0811 14.3044 14.0279 12.715 15.5158C11.0895 17.0376 10.1142 19.1004 10.1142 21.3999C10.1142 23.6994 11.1256 25.796 12.715 27.284C14.3405 28.8057 16.5439 29.7188 19.0002 29.7188C21.4564 29.7188 23.696 28.7719 25.2854 27.284C26.9108 25.7622 27.8861 23.6994 27.8861 21.3999C27.8861 19.1004 26.8747 17.0038 25.2854 15.5158C23.696 14.0279 21.4564 13.0811 19.0002 13.0811ZM23.9127 26.0328C22.6485 27.1825 20.9146 27.9265 19.0002 27.9265C17.0857 27.9265 15.3519 27.1825 14.0876 26.0328C12.8234 24.8492 12.0648 23.226 12.0648 21.4337C12.0648 19.6415 12.8595 18.0183 14.0876 16.8347C15.3519 15.6511 17.0857 14.941 19.0002 14.941C20.9146 14.941 22.6485 15.6849 23.9127 16.8347C25.177 18.0183 25.9355 19.6415 25.9355 21.4337C25.9717 23.226 25.177 24.8492 23.9127 26.0328Z" fill="white"/>
<path d="M31.8593 16.3614C32.8368 16.3614 33.6293 15.6195 33.6293 14.7044C33.6293 13.7892 32.8368 13.0474 31.8593 13.0474C30.8818 13.0474 30.0894 13.7892 30.0894 14.7044C30.0894 15.6195 30.8818 16.3614 31.8593 16.3614Z" fill="white"/>
</svg>
