<svg width="38" height="38" viewBox="0 0 38 38" fill="none" xmlns="http://www.w3.org/2000/svg">
<path d="M0 12.6364H7.676V5H0V12.6364ZM1.42651 6.23833H6.118V11.2604H1.42651V6.23833Z" fill="#FF1E56"/>
<path d="M0 22.9558H7.676V15.1818H0V22.9558ZM1.42651 16.4425H6.118V21.5551H1.42651V16.4425Z" fill="#FF1E56"/>
<path d="M0 33H7.676V25.226H0V33ZM1.42651 26.4867H6.118V31.5993H1.42651V26.4867Z" fill="#FF1E56"/>
<path d="M10.412 33H38V25.226H10.412V33ZM11.932 26.602H36.48V31.5948L11.932 31.6585V26.602Z" fill="#FF1E56"/>
<path d="M10.412 22.9558H38V15.1818H10.412V22.9558ZM11.932 16.5577H36.48V21.5506L11.932 21.6143V16.5577Z" fill="#FF1E56"/>
<path d="M10.412 12.774H38V5H10.412V12.774ZM11.932 6.37592H36.48V11.3688L11.932 11.4324V6.37592Z" fill="#FF1E56"/>
</svg>
