<svg width="38" height="38" viewBox="0 0 38 38" fill="none" xmlns="http://www.w3.org/2000/svg">
<path d="M11.3523 18.684C13.6128 18.684 15.4452 16.8529 15.4452 14.5947C15.4452 12.3363 13.6128 10.5055 11.3523 10.5055C9.09185 10.5055 7.25939 12.3363 7.25939 14.5947C7.26236 16.8519 9.09309 18.681 11.3523 18.684ZM11.3523 12.0953C12.7382 12.0953 13.8619 13.2177 13.8619 14.6026C13.8619 15.9873 12.7382 17.11 11.3523 17.11C9.96615 17.11 8.84272 15.9873 8.84272 14.6026C8.84322 13.218 9.9664 12.0958 11.3523 12.0953Z" fill="#FF1E56"/>
<path d="M11.3525 20.1939C9.67788 20.1816 8.07055 20.8531 6.90333 22.0527C5.71583 23.2629 5.06667 24.9081 5.06667 26.6956C5.0679 27.1319 5.42168 27.4854 5.85833 27.4866H16.8467C17.2833 27.4854 17.6371 27.1319 17.6383 26.6956C17.6383 24.9081 16.9892 23.2629 15.8017 22.0527C14.6345 20.8531 13.0274 20.1816 11.3525 20.1939ZM6.70542 25.9047C6.84099 24.8705 7.30758 23.908 8.03542 23.16C8.91145 22.2744 10.1061 21.7759 11.3525 21.7759C12.5989 21.7759 13.7936 22.2744 14.6696 23.16C15.3959 23.9087 15.8625 24.871 15.9996 25.9047H6.70542Z" fill="#FF1E56"/>
<path d="M34.0417 5H3.95833C1.77259 5.00099 0.000989583 6.77101 0 8.9548V29.0452C0.000989583 31.229 1.77259 32.999 3.95833 33H34.0417C36.2274 32.999 37.999 31.229 38 29.0452V8.9548C37.999 6.77101 36.2274 5.00099 34.0417 5ZM36.4167 29.0452C36.413 30.354 35.3516 31.4144 34.0417 31.4181H3.95833C2.64837 31.4144 1.58704 30.354 1.58333 29.0452V8.9548C1.58704 7.64601 2.64837 6.58563 3.95833 6.58192H34.0417C35.3516 6.58563 36.413 7.64601 36.4167 8.9548V29.0452Z" fill="#FF1E56"/>
<path d="M32.0943 18.209H22.8713C22.4342 18.209 22.0797 18.563 22.0797 19C22.0797 19.437 22.4342 19.791 22.8713 19.791H32.0943C32.5314 19.791 32.8859 19.437 32.8859 19C32.8859 18.563 32.5314 18.209 32.0943 18.209Z" fill="#FF1E56"/>
<path d="M32.0943 23.2712H22.8713C22.4342 23.2712 22.0797 23.6251 22.0797 24.0621C22.0797 24.4992 22.4342 24.8531 22.8713 24.8531H32.0943C32.5314 24.8531 32.8859 24.4992 32.8859 24.0621C32.8859 23.6251 32.5314 23.2712 32.0943 23.2712Z" fill="#FF1E56"/>
<path d="M32.0943 13.1469H22.8713C22.4342 13.1469 22.0797 13.5008 22.0797 13.9379C22.0797 14.3749 22.4342 14.7288 22.8713 14.7288H32.0943C32.5314 14.7288 32.8859 14.3749 32.8859 13.9379C32.8859 13.5008 32.5314 13.1469 32.0943 13.1469Z" fill="#FF1E56"/>
</svg>
