<svg width="28" height="29" viewBox="0 0 28 29" fill="none" xmlns="http://www.w3.org/2000/svg">
<path d="M24.4147 23.5846V4.39586H5.22594V0.810547H3.58531V4.39586H0V6.03648H3.58531V25.2252H22.7741V28.8105H24.4147V25.2252H28V23.5846H24.4147ZM5.22594 6.03648H22.7741V17.4975L19.868 15.2905L16.5111 17.8358L10.9309 13.0369L5.22594 17.2616V6.03648ZM22.7741 23.5847H5.22594V19.3031L10.8545 15.135L16.4464 19.944L19.8673 17.3501L22.7741 19.5576V23.5847Z" fill="black"/>
<path d="M16.5066 7.93359C15.117 7.93359 13.9864 9.0642 13.9864 10.4539C13.9864 11.8436 15.117 12.9742 16.5066 12.9742C17.8963 12.9742 19.027 11.8436 19.027 10.4539C19.027 9.0642 17.8963 7.93359 16.5066 7.93359ZM16.5066 11.3336C16.0216 11.3336 15.627 10.9389 15.627 10.4539C15.627 9.96884 16.0216 9.57421 16.5066 9.57421C16.9917 9.57421 17.3863 9.96884 17.3863 10.4539C17.3863 10.9389 16.9917 11.3336 16.5066 11.3336Z" fill="black"/>
</svg>
