<svg width="38" height="39" viewBox="0 0 38 39" fill="none" xmlns="http://www.w3.org/2000/svg">
<path d="M34.8448 10.8545H34.519C34.3282 9.26832 33.0128 8.01075 31.369 7.85685C31.1803 6.14689 29.6855 4.81055 27.8744 4.81055H5.44406C2.44226 4.81055 0 7.18052 0 10.0932V25.3548C0 27.1247 1.39566 28.5835 3.17459 28.7503C3.3613 30.442 4.82683 31.7671 6.61185 31.7949C6.61649 32.0951 6.6649 32.3849 6.75275 32.6583C7.15254 33.9038 8.35222 34.8105 9.76556 34.8105H34.8448C36.5846 34.8105 38 33.4371 38 31.749V13.9163C38 12.228 36.5846 10.8545 34.8448 10.8545ZM36.5156 13.9163V25.709L33.2871 23.3424C32.4049 22.6959 31.2119 22.6858 30.3184 23.3174L26.2343 26.205L18.446 18.4131C17.5182 17.4847 16.0086 17.4276 15.0093 18.2835L8.09506 24.203V13.9163C8.09506 13.0222 8.8445 12.2949 9.76556 12.2949H34.8448C35.7662 12.2949 36.5156 13.0222 36.5156 13.9163ZM36.5156 31.7488C36.5156 32.6429 35.7662 33.3701 34.8451 33.3701H9.76556C9.01729 33.3701 8.38208 32.8899 8.17044 32.2304C8.12144 32.0782 8.09506 31.9164 8.09506 31.749V26.1237L15.9915 19.3635C16.3954 19.0175 17.0054 19.0405 17.3805 19.4158L20.8955 22.9325C20.8955 22.9328 20.8955 22.9328 20.8958 22.9328L27.8918 29.9322C28.0373 30.0779 28.2307 30.1511 28.4246 30.1511C28.6107 30.1511 28.7972 30.0835 28.9413 29.9479C29.2352 29.6708 29.2425 29.2151 28.9572 28.9295L27.278 27.2494L31.1925 24.4819C31.5537 24.2264 32.0358 24.2303 32.3924 24.4917L36.5156 27.5141V31.7488ZM4.63867 28.3848V11.3797C4.63867 11.3074 4.64244 11.2357 4.64998 11.1654C4.76073 10.1084 5.68353 9.28098 6.80145 9.28098H15.8799C16.2899 9.28098 16.6221 8.95857 16.6221 8.56076C16.6221 8.16295 16.2899 7.84054 15.8799 7.84054H6.80145C4.7903 7.84054 3.1543 9.42812 3.1543 11.3797V27.2949C2.20598 27.1292 1.48438 26.3224 1.48438 25.3548V10.0932C1.48438 7.97473 3.2607 6.25099 5.44406 6.25099H27.8744C28.8595 6.25099 29.6832 6.93548 29.8667 7.84054H21.8174C21.4075 7.84054 21.0752 8.16295 21.0752 8.56076C21.0752 8.95857 21.4075 9.28098 21.8174 9.28098H31.0287C32.008 9.28098 32.8279 9.95759 33.0178 10.8545H9.76556C8.02606 10.8545 6.61069 12.228 6.61069 13.9163V30.3545C5.51799 30.3244 4.63867 29.4525 4.63867 28.3848Z" fill="white"/>
<path d="M28.835 15.2262C27.0833 15.2262 25.6587 16.609 25.6587 18.3083C25.6587 20.0078 27.0836 21.3906 28.835 21.3906C30.5861 21.3906 32.011 20.0078 32.011 18.3083C32.011 16.609 30.5861 15.2262 28.835 15.2262ZM28.835 19.9501C27.902 19.9501 27.143 19.2136 27.143 18.3086C27.143 17.4032 27.902 16.6667 28.835 16.6667C29.7676 16.6667 30.5267 17.4032 30.5267 18.3086C30.5267 19.2136 29.7676 19.9501 28.835 19.9501Z" fill="white"/>
<path d="M18.1635 8.83641C18.1821 8.87973 18.205 8.92137 18.2317 8.96048C18.2586 8.99986 18.2896 9.03672 18.3239 9.06992C18.3581 9.10283 18.3958 9.13322 18.4366 9.15994C18.4766 9.18583 18.5204 9.20805 18.5651 9.22606C18.6094 9.24406 18.6564 9.25785 18.7039 9.26713C18.7512 9.27642 18.8002 9.28092 18.8486 9.28092C18.8976 9.28092 18.9457 9.27642 18.9941 9.26713C19.0414 9.25785 19.0875 9.24406 19.1327 9.22606C19.1774 9.20805 19.2203 9.18583 19.2606 9.15994C19.3012 9.13322 19.3391 9.10283 19.3734 9.06992C19.4081 9.03672 19.4386 8.99986 19.4661 8.96048C19.4928 8.92137 19.5157 8.87973 19.5343 8.83641C19.5528 8.79252 19.567 8.74722 19.5766 8.70193C19.5862 8.65494 19.5908 8.6074 19.5908 8.5607C19.5908 8.51371 19.5862 8.46617 19.5766 8.42031C19.567 8.37417 19.5528 8.32859 19.5343 8.28555C19.5157 8.24166 19.4928 8.19974 19.4661 8.16092C19.4386 8.12125 19.4081 8.08468 19.3734 8.05148C19.3391 8.01828 19.3012 7.98818 19.2606 7.96201C19.2203 7.93613 19.1774 7.91391 19.1327 7.8959C19.0875 7.87789 19.0414 7.86411 18.9941 7.85482C18.8982 7.83598 18.7996 7.83598 18.7039 7.85482C18.6564 7.86411 18.6094 7.87789 18.5651 7.8959C18.5204 7.91391 18.4766 7.93613 18.4366 7.96201C18.3958 7.98818 18.3581 8.01828 18.3239 8.05148C18.2896 8.08468 18.2586 8.12125 18.2317 8.16092C18.205 8.19974 18.1821 8.24166 18.1635 8.28555C18.145 8.32859 18.1308 8.37417 18.1212 8.42031C18.1116 8.46617 18.1064 8.51371 18.1064 8.5607C18.1064 8.6074 18.1116 8.65494 18.1212 8.70193C18.1308 8.74722 18.145 8.79252 18.1635 8.83641Z" fill="white"/>
</svg>
