<svg width="38" height="38" viewBox="0 0 38 38" fill="none" xmlns="http://www.w3.org/2000/svg">
<path d="M36.3224 5H1.67764C0.752578 5 0 5.67234 0 6.49877V31.5012C0 32.3277 0.752578 33 1.67764 33H36.3224C37.2474 33 38 32.3277 38 31.5012V6.49877C38 5.67234 37.2474 5 36.3224 5ZM36.3224 31.5012L1.67771 31.5022C1.67771 31.5022 1.67764 31.5019 1.67764 31.5012V6.49877H36.3224V31.5012Z" fill="#FF1E56"/>
<path d="M33.174 8.56218H4.82612C4.36292 8.56218 3.9873 8.89775 3.9873 9.31156V25.8747C3.9873 26.2885 4.36292 26.624 4.82612 26.624H33.174C33.6372 26.624 34.0128 26.2884 34.0128 25.8746V9.31156C34.0129 8.89775 33.6372 8.56218 33.174 8.56218ZM5.66494 10.0609H32.3352V22.7474L27.0487 18.0252C26.7212 17.7326 26.1901 17.7326 25.8625 18.0252L22.6398 20.9042L15.2506 14.3028C14.9231 14.0104 14.3919 14.0103 14.0643 14.3028L5.66501 21.806V10.0609H5.66494ZM5.66494 25.1251V23.9253L14.6574 15.8924L24.9919 25.1251H5.66494ZM32.3353 25.1252H27.3646V25.1251L23.8262 21.964L26.4557 19.6148L32.1425 24.6946C32.201 24.7468 32.2661 24.7894 32.3352 24.8229V25.1252H32.3353Z" fill="#FF1E56"/>
<path d="M22.5883 11.4831C20.8397 11.4831 19.417 12.754 19.417 14.3163C19.417 15.8785 20.8396 17.1494 22.5883 17.1494C24.3369 17.1494 25.7596 15.8785 25.7596 14.3163C25.7596 12.754 24.3369 11.4831 22.5883 11.4831ZM22.5883 15.6507C21.7646 15.6507 21.0946 15.0521 21.0946 14.3163C21.0946 13.5805 21.7647 12.9819 22.5883 12.9819C23.4118 12.9819 24.0818 13.5805 24.0818 14.3163C24.0818 15.0521 23.4119 15.6507 22.5883 15.6507Z" fill="#FF1E56"/>
<path d="M12.1224 28.3133H4.82612C4.36292 28.3133 3.9873 28.6489 3.9873 29.0627C3.9873 29.4766 4.36292 29.8121 4.82612 29.8121H12.1224C12.5857 29.8121 12.9612 29.4765 12.9612 29.0627C12.9612 28.6489 12.5857 28.3133 12.1224 28.3133Z" fill="#FF1E56"/>
<path d="M17.8634 28.3133H15.9497C15.4865 28.3133 15.1109 28.6489 15.1109 29.0627C15.1109 29.4765 15.4865 29.8121 15.9497 29.8121H17.8634C18.3267 29.8121 18.7022 29.4765 18.7022 29.0627C18.7022 28.6489 18.3266 28.3133 17.8634 28.3133Z" fill="#FF1E56"/>
</svg>
