<svg width="64" height="65" viewBox="0 0 64 65" fill="none" xmlns="http://www.w3.org/2000/svg">
<path d="M61.9977 30.8102H36.6651C35.5612 30.8102 34.6652 29.9142 34.6652 28.8102C34.6652 27.7062 35.5612 26.8102 36.6651 26.8102H61.9977C63.1017 26.8102 63.9977 27.7062 63.9977 28.8102C63.9977 29.9142 63.1017 30.8102 61.9977 30.8102Z" fill="white"/>
<path d="M51.9985 40.8104C51.4863 40.8104 50.9746 40.6156 50.5849 40.224C49.8037 39.4423 49.8037 38.1757 50.5849 37.3944L59.1716 28.8081L50.5849 20.2213C49.8037 19.44 49.8037 18.1734 50.5849 17.3922C51.3666 16.6105 52.6332 16.6105 53.4144 17.3922L63.4141 27.3921C64.1953 28.1733 64.1953 29.4399 63.4141 30.2212L53.4144 40.2211C53.0224 40.6156 52.5107 40.8104 51.9985 40.8104Z" fill="white"/>
<path d="M21.3328 64.8105C20.762 64.8105 20.2205 64.7305 19.6795 64.5625L3.63171 59.2159C1.44819 58.4532 0 56.4186 0 54.1442V6.14475C0 3.20338 2.39201 0.811319 5.33331 0.811319C5.90361 0.811319 6.44509 0.891396 6.98658 1.05936L23.0339 6.40598C25.2179 7.16866 26.6656 9.20331 26.6656 11.4777V59.4771C26.6656 62.4185 24.2741 64.8105 21.3328 64.8105ZM5.33331 4.81127C4.59994 4.81127 3.99986 5.41136 3.99986 6.14475V54.1442C3.99986 54.712 4.3812 55.2399 4.92512 55.4293L20.8977 60.752C21.0125 60.7891 21.1619 60.8106 21.3328 60.8106C22.0661 60.8106 22.6657 60.2105 22.6657 59.4771V11.4777C22.6657 10.9098 22.2844 10.382 21.7405 10.1926L5.76787 4.86986C5.65313 4.83276 5.50372 4.81127 5.33331 4.81127Z" fill="white"/>
<path d="M40.6648 22.1438C39.5609 22.1438 38.6649 21.2478 38.6649 20.1438V8.14396C38.6649 6.30658 37.1693 4.8105 35.332 4.8105H5.33301C4.22905 4.8105 3.33308 3.91452 3.33308 2.81052C3.33308 1.70653 4.22905 0.810547 5.33301 0.810547H35.332C39.3773 0.810547 42.6648 4.0986 42.6648 8.14396V20.1438C42.6648 21.2478 41.7688 22.1438 40.6648 22.1438Z" fill="white"/>
<path d="M35.3326 56.8105H24.666C23.562 56.8105 22.666 55.9145 22.666 54.8105C22.666 53.7066 23.562 52.8106 24.666 52.8106H35.3326C37.17 52.8106 38.6655 51.3145 38.6655 49.4771V37.4773C38.6655 36.3733 39.5615 35.4773 40.6654 35.4773C41.7694 35.4773 42.6654 36.3733 42.6654 37.4773V49.4771C42.6654 53.5225 39.3779 56.8105 35.3326 56.8105Z" fill="white"/>
</svg>
