<svg width="33" height="28" viewBox="0 0 33 28" fill="none" xmlns="http://www.w3.org/2000/svg">
<path d="M31.8316 12.355L20.9244 1.44766C19.9621 0.485221 18.358 0.485221 17.3956 1.44766L15.15 3.69328C14.7222 4.12103 14.4015 4.7626 14.4015 5.40422C14.4015 6.04585 14.6154 6.68741 15.15 7.11516L18.1441 10.1093H3.06644C1.67631 10.1093 0.5 11.2856 0.5 12.6757V15.7768C0.5 17.06 1.67625 18.1293 3.06644 18.1293H18.0372L15.1499 21.0166C14.7222 21.4443 14.4014 22.0859 14.4014 22.8345C14.4014 23.4761 14.6153 24.1177 15.1499 24.6523L17.3956 26.898C17.8233 27.3257 18.4649 27.6465 19.1065 27.6465C19.7481 27.6465 20.3897 27.4327 20.8174 26.898L31.7247 15.9907C32.2594 15.456 32.4732 14.8143 32.4732 14.1728C32.5802 13.5312 32.3663 12.8897 31.8316 12.355ZM30.3346 14.4936L19.4273 25.4009C19.2134 25.6148 19.1066 25.6148 18.8926 25.4009L16.647 23.1553C16.5401 23.0483 16.5401 22.9414 16.5401 22.8345C16.5401 22.7276 16.5401 22.6207 16.647 22.5138L21.3521 17.8087C21.6728 17.488 21.7798 17.0602 21.5659 16.6324C21.3521 16.2047 21.0312 15.9908 20.6036 15.9908H3.06644C2.85256 15.9908 2.63869 15.8838 2.63869 15.7769V12.6758C2.63869 12.462 2.85256 12.2481 3.06644 12.2481H20.8175C21.2452 12.2481 21.673 12.0342 21.7799 11.6065C21.8868 11.1787 21.8868 10.751 21.566 10.4302L16.754 5.61816C16.6471 5.51122 16.6471 5.40428 16.6471 5.40428C16.6471 5.29735 16.6471 5.29735 16.754 5.19041L18.9996 2.94485C19.1066 2.83791 19.3204 2.73097 19.5343 2.94485L30.4415 13.852C30.5484 13.959 30.5484 14.0659 30.5484 14.1728C30.4415 14.2798 30.4415 14.3867 30.3346 14.4936Z" fill="white"/>
</svg>
