<svg width="22" height="29" viewBox="0 0 22 29" fill="none" xmlns="http://www.w3.org/2000/svg">
<path d="M21.4758 5.39096L17.1228 1.3027C16.7849 0.985372 16.3355 0.810547 15.8576 0.810547H1.78933C0.802692 0.810547 0 1.56441 0 2.49102V14.0354C0 14.7547 1.19288 14.7557 1.19288 14.0354V2.49102C1.19288 2.18215 1.46045 1.93086 1.78933 1.93086H15.6781V5.09133C15.6781 6.01794 16.4808 6.7718 17.4675 6.7718H20.8071V27.1301C20.8071 27.4389 20.5395 27.6902 20.2106 27.6902H1.78933C1.46045 27.6902 1.19288 27.4389 1.19288 27.1301V18.5613C1.19288 17.842 0 17.841 0 18.5613V27.1301C0 28.0567 0.802692 28.8105 1.78933 28.8105H20.2107C21.1973 28.8105 22 28.0567 22 27.1301V6.57922C21.9999 6.13031 21.8138 5.70834 21.4758 5.39096ZM16.871 5.09133V2.65061L20.0663 5.65149H17.4675C17.1386 5.65149 16.871 5.4002 16.871 5.09133Z" fill="black"/>
<path d="M0.300796 16.7447C0.751586 17.0268 1.35 16.6174 1.20619 16.1294C1.13838 15.8992 0.915071 15.7313 0.660987 15.7194C0.406664 15.7075 0.167193 15.8549 0.0755195 16.0774C-0.0242653 16.3193 0.0721794 16.6002 0.300796 16.7447Z" fill="black"/>
<path d="M15.6933 20.9063C16.351 20.9063 16.8862 20.4038 16.8862 19.786V13.8527C16.8862 13.5534 16.762 13.272 16.5368 13.0605L13.1268 9.85787C12.9014 9.6463 12.6018 9.52979 12.2833 9.52979H5.96565C5.30789 9.52979 4.77276 10.0324 4.77276 10.6501V19.786C4.77276 20.4038 5.30789 20.9063 5.96565 20.9063H15.6933ZM8.93617 19.786V17.6475H12.7227V19.786H8.93617ZM5.96565 10.6501H12.2833L15.6933 13.8527V19.786H13.9156V17.0873C13.9156 16.778 13.6485 16.5272 13.3192 16.5272H8.33973C8.01037 16.5272 7.74329 16.778 7.74329 17.0873V19.786H5.96565V10.6501Z" fill="black"/>
<path d="M8.33992 11.9053C8.01057 11.9053 7.74348 12.1561 7.74348 12.4654V15.419C7.74348 15.7283 8.01057 15.9791 8.33992 15.9791H13.3193C13.6486 15.9791 13.9157 15.7283 13.9157 15.419V13.8756C13.9157 13.7308 13.856 13.5916 13.7491 13.4872L12.3044 12.0771C12.192 11.9673 12.0368 11.9053 11.8746 11.9053H8.33992V11.9053ZM12.7228 14.1013V14.8588H11.3242V13.0255H11.6208L12.7228 14.1013ZM8.93636 13.0256H10.1313V14.8588H8.93636V13.0256Z" fill="black"/>
</svg>
