<svg width="64" height="65" viewBox="0 0 64 65" fill="none" xmlns="http://www.w3.org/2000/svg">
<path d="M32.0001 17.5118C23.5646 17.5118 16.7013 24.3751 16.7013 32.8107C16.7013 41.2462 23.5646 48.1095 32.0001 48.1095C40.4357 48.1095 47.299 41.2462 47.299 32.8107C47.299 24.3751 40.4357 17.5118 32.0001 17.5118ZM32.0001 44.2848C25.6735 44.2848 20.526 39.1373 20.526 32.8107C20.526 26.484 25.6735 21.3366 32.0001 21.3366C38.3268 21.3366 43.4742 26.484 43.4742 32.8107C43.4742 39.1373 38.3268 44.2848 32.0001 44.2848Z" fill="white"/>
<path d="M62.4941 25.5234L59.5956 24.8933C58.3442 24.6213 57.3487 23.6994 56.8581 22.5164C56.3673 21.3327 56.4181 19.9742 57.1111 18.8963L58.7153 16.4009C59.2017 15.644 59.0947 14.6504 58.459 14.0146L50.7959 6.35156C50.1602 5.71582 49.1665 5.60889 48.4097 6.09521L45.9143 7.69946C44.8364 8.39243 43.4778 8.44327 42.2941 7.95242C41.1111 7.46187 40.1893 6.46635 39.9172 5.21492L39.2871 2.31641C39.0962 1.4375 38.3179 0.810547 37.4185 0.810547H26.5815C25.6821 0.810547 24.9038 1.4375 24.7129 2.31641L24.0828 5.21492C23.8107 6.46635 22.8889 7.46187 21.7059 7.95242C20.5222 8.44327 19.1636 8.39243 18.0857 7.69946L15.5903 6.09521C14.8335 5.60889 13.8398 5.71582 13.2041 6.35156L5.54102 14.0146C4.90527 14.6504 4.79834 15.644 5.28467 16.4009L6.88891 18.8963C7.58188 19.9742 7.63272 21.3327 7.14187 22.5164C6.65132 23.6994 5.65581 24.6213 4.40437 24.8933L1.50586 25.5234C0.626953 25.7148 0 26.4927 0 27.3921V38.229C0 39.1284 0.626953 39.9062 1.50586 40.0977L4.40437 40.7278C5.65581 40.9998 6.65132 41.9217 7.14187 43.1047C7.63272 44.2884 7.58188 45.6469 6.88891 46.7248L5.28467 49.2202C4.79834 49.9771 4.90527 50.9707 5.54102 51.6064L13.2041 59.2695C13.8398 59.9053 14.8335 60.0122 15.5903 59.5259L18.0857 57.9216C19.1636 57.2287 20.5222 57.1778 21.7059 57.6687C22.8889 58.1592 23.8107 59.1547 24.0828 60.4062L24.7129 63.3047C24.9038 64.1836 25.6821 64.8105 26.5815 64.8105H37.4185C38.3179 64.8105 39.0962 64.1836 39.2871 63.3047L39.9172 60.4062C40.1893 59.1547 41.1111 58.1592 42.2941 57.6687C43.4778 57.1778 44.8364 57.2287 45.9143 57.9216L48.4097 59.5259C49.1665 60.0122 50.1602 59.9058 50.7959 59.2695L58.459 51.6064C59.0947 50.9707 59.2017 49.9771 58.7153 49.2202L57.1111 46.7248C56.4181 45.6469 56.3673 44.2884 56.8581 43.1047C57.3487 41.9217 58.3442 40.9998 59.5956 40.7278L62.4941 40.0977C63.373 39.9062 64 39.1284 64 38.229V27.3921C64 26.4927 63.373 25.7148 62.4941 25.5234ZM60.1753 32.8106C60.1753 35.0735 58.5981 37.0304 56.3869 37.5111L55.665 37.668C54.9722 37.8188 54.4194 38.3403 54.229 39.0229C53.7334 40.8008 53.0205 42.52 52.1104 44.1328C51.7617 44.7505 51.7832 45.5103 52.167 46.1069L52.5678 46.7304C53.7917 48.634 53.5232 51.1331 51.9231 52.7334C50.323 54.3336 47.8238 54.6022 45.9202 53.3785L45.2964 52.9775C44.6997 52.5938 43.9399 52.5723 43.3228 52.9209C41.7095 53.8311 39.9902 54.5439 38.2124 55.0396C37.5298 55.23 37.0083 55.7827 36.8574 56.4756L36.7005 57.1974C36.2198 59.4086 34.2629 60.9858 32 60.9858C29.7371 60.9858 27.7802 59.4086 27.2995 57.1974L27.1426 56.4756C26.9917 55.7827 26.4702 55.23 25.7876 55.0396C24.0098 54.5439 22.2905 53.8311 20.6777 52.9209C20.0601 52.5723 19.3003 52.5942 18.7036 52.9775L18.0805 53.3782C16.1768 54.6021 13.6774 54.3335 12.0771 52.7332C10.4771 51.133 10.2086 48.634 11.4322 46.7305L11.833 46.1069C12.2168 45.5103 12.2388 44.7505 11.8901 44.1328C10.98 42.52 10.2671 40.8008 9.771 39.0229C9.58057 38.3403 9.02832 37.8188 8.33545 37.668L7.61324 37.511C5.40196 37.0303 3.82471 35.0734 3.82471 32.8105C3.82471 30.5476 5.40191 28.5907 7.61313 28.11L8.33496 27.9531C9.02783 27.8022 9.58057 27.2808 9.771 26.5981C10.2666 24.8203 10.9795 23.1011 11.8896 21.4883C12.2383 20.8706 12.2168 20.1108 11.833 19.5142L11.4322 18.8907C10.2083 16.9871 10.4768 14.488 12.0769 12.8877C13.677 11.2875 16.1762 11.0189 18.0798 12.2426L18.7036 12.6436C19.3003 13.0273 20.0601 13.0488 20.6772 12.7002C22.2905 11.79 24.0098 11.0771 25.7876 10.5815C26.4702 10.3911 26.9917 9.83838 27.1426 9.14551L27.2995 8.42372C27.7802 6.21247 29.7371 4.63525 32 4.63525C34.2629 4.63525 36.2198 6.21248 36.7005 8.42372L36.8574 9.14551C37.0083 9.83838 37.5298 10.3911 38.2124 10.5815C39.9902 11.0771 41.7095 11.79 43.3223 12.7002C43.9399 13.0488 44.6997 13.0269 45.2964 12.6436L45.9195 12.2429C47.8232 11.019 50.3226 11.2876 51.9229 12.8879C53.5229 14.4881 53.7914 16.9871 52.5678 18.8906L52.167 19.5142C51.7832 20.1108 51.7612 20.8706 52.1099 21.4883C53.0205 23.1011 53.7329 24.8203 54.229 26.5981C54.4194 27.2808 54.9717 27.8022 55.6646 27.9531L56.3868 28.1101C58.598 28.5908 60.1753 30.5477 60.1753 32.8106Z" fill="white"/>
</svg>
