<svg width="66" height="66" viewBox="0 0 66 66" fill="none" xmlns="http://www.w3.org/2000/svg">
<path d="M21.6188 14.4379L21.7215 14.4534C24.3892 14.5038 26.6293 16.2923 26.629 18.5827C26.629 18.5827 26.629 18.5827 26.629 18.5827V20.8895V20.8897H26.379C26.3795 21.4467 25.8858 21.8976 25.2761 21.8976H6.5172C5.90819 21.8976 5.41378 21.4463 5.41378 20.8902V18.5827C5.41378 16.4691 7.50383 14.7449 10.0925 14.7031L21.6188 14.4379ZM21.6188 14.4379C21.8998 13.9752 22.0607 13.4411 22.0605 12.8692C22.0605 12.8692 22.0605 12.8692 22.0605 12.8691V8.39426C22.0606 5.31776 19.327 2.85328 16.0152 2.85328H15.7338C12.422 2.85328 9.68839 5.31776 9.68839 8.39426V12.8692C9.68839 13.4436 9.85081 13.9799 10.1342 14.444L10.0716 14.4534" fill="white" stroke="white" stroke-width="0.5"/>
</svg>
